<?xml version="1.0" standalone="no"?>
<!DOCTYPE svg PUBLIC "-//W3C//DTD SVG 20010904//EN"
 "http://www.w3.org/TR/2001/REC-SVG-20010904/DTD/svg10.dtd">
<svg version="1.0" xmlns="http://www.w3.org/2000/svg"
 width="512.000000pt" height="512.000000pt" viewBox="0 0 512.000000 512.000000"
 preserveAspectRatio="xMidYMid meet">
<metadata>
Created by potrace 1.11, written by Peter Selinger 2001-2013
</metadata>
<g transform="translate(0.000000,512.000000) scale(0.100000,-0.100000)"
fill="#000000" stroke="none">
<path d="M4107 5094 c-245 -83 -428 -237 -517 -436 -30 -67 -37 -76 -94 -108
-123 -71 -265 -239 -323 -384 -44 -111 -52 -141 -98 -391 -3 -16 -8 -46 -11
-65 -20 -123 -90 -352 -148 -483 -14 -31 -25 -58 -24 -60 2 -5 -97 -155 -138
-208 -59 -76 -192 -209 -262 -261 -31 -24 -59 -45 -62 -48 -41 -42 -259 -164
-425 -239 -248 -112 -333 -168 -475 -310 -202 -203 -322 -436 -381 -745 -17
-87 -23 -176 -22 -313 l1 -133 -38 20 c-121 61 -242 170 -333 296 -81 114
-155 315 -173 469 -3 33 -8 74 -10 90 -5 36 -4 260 1 295 35 244 117 417 273
570 135 133 275 210 509 281 114 34 170 100 180 211 13 143 -91 253 -237 251
-115 -2 -423 -124 -560 -222 -25 -17 -63 -43 -84 -57 -22 -15 -87 -74 -146
-133 -317 -316 -450 -731 -406 -1261 4 -47 9 -92 11 -100 3 -8 7 -32 9 -54 3
-21 8 -46 10 -55 3 -9 7 -27 10 -41 18 -104 85 -297 143 -415 237 -475 677
-819 1126 -879 28 -4 58 -16 73 -29 45 -40 148 -97 214 -120 65 -22 66 -22
978 -25 l912 -3 26 27 c26 25 26 29 20 105 -17 205 -123 344 -312 409 -32 11
-60 20 -61 20 -2 0 -20 0 -40 0 l-37 0 64 46 c36 26 87 70 113 98 50 53 127
178 127 208 0 39 20 24 38 -29 33 -96 88 -250 142 -403 29 -80 63 -179 77
-220 46 -137 128 -226 233 -249 25 -6 182 -11 356 -11 l311 0 21 23 c30 32 29
106 -2 191 -43 120 -133 210 -281 281 l-90 44 0 414 0 415 43 58 c239 331 306
733 186 1116 -14 46 -57 142 -94 214 -181 344 -161 468 80 510 192 34 349 150
428 315 71 148 105 350 77 447 -8 27 -42 87 -74 134 -78 113 -260 348 -286
370 -42 35 -143 77 -230 94 -22 5 -42 9 -45 9 -3 1 -26 5 -51 9 l-45 8 1 196
c0 109 -3 209 -8 224 -9 28 -48 49 -85 46 -12 -1 -50 -12 -85 -24z"/>
</g>
</svg>
